<?xml version="1.0" standalone="no"?>
<!DOCTYPE svg PUBLIC "-//W3C//DTD SVG 20010904//EN"
 "http://www.w3.org/TR/2001/REC-SVG-20010904/DTD/svg10.dtd">
<svg version="1.0" xmlns="http://www.w3.org/2000/svg"
 width="763.000000pt" height="763.000000pt" viewBox="0 0 763.000000 763.000000"
 preserveAspectRatio="xMidYMid meet">
<metadata>
Created by potrace 1.14, written by Peter Selinger 2001-2017
</metadata>
<g transform="translate(0.000000,763.000000) scale(0.100000,-0.100000)"
fill="#000000" stroke="none">
<path d="M0 3815 l0 -3815 3815 0 3815 0 0 3815 0 3815 -3815 0 -3815 0 0
-3815z m4113 3740 c601 -53 1177 -248 1677 -569 571 -365 1066 -927 1363
-1545 196 -409 305 -788 347 -1218 20 -195 19 -724 -1 -906 -33 -304 -134
-682 -248 -930 -17 -37 -31 -69 -31 -71 0 -11 -89 -192 -133 -271 -236 -423
-574 -828 -947 -1132 -265 -217 -617 -423 -940 -551 -333 -132 -593 -198 -970
-244 -135 -17 -677 -18 -688 -2 -4 6 -54 17 -112 23 -104 11 -188 23 -305 42
-118 20 -423 99 -565 147 -657 222 -1284 652 -1696 1161 -427 530 -701 1179
-791 1876 -26 199 -25 783 0 965 90 639 297 1154 679 1687 118 165 206 271
343 412 535 553 1200 920 1930 1066 155 31 362 60 490 68 140 9 449 5 598 -8z"/>
<path d="M3515 7033 c-522 -45 -1096 -247 -1509 -531 -614 -422 -1034 -981
-1279 -1702 -55 -160 -94 -329 -123 -530 -24 -163 -30 -622 -11 -790 79 -675
363 -1308 809 -1801 402 -444 977 -780 1593 -929 296 -72 406 -84 775 -84 284
0 342 2 460 21 251 40 542 116 734 193 125 50 338 156 461 231 110 67 333 220
366 251 8 7 53 46 102 87 268 225 538 568 724 921 153 289 274 651 334 1000
43 252 35 795 -16 1000 -7 30 -21 96 -30 145 -61 331 -258 797 -472 1117 -172
257 -435 543 -653 710 -525 401 -1081 627 -1699 688 -94 9 -471 11 -566 3z
m-161 -429 c10 -80 7 -247 -7 -273 -26 -51 -98 -50 -132 2 -13 21 -15 45 -9
161 6 109 10 136 21 132 7 -3 13 -1 13 4 0 10 28 17 76 19 30 1 32 -1 38 -45z
m1148 -36 c32 -26 35 -50 30 -225 -4 -141 -1 -191 13 -257 15 -75 15 -86 1
-120 -28 -68 -113 -81 -161 -24 -29 35 -33 87 -10 141 12 28 15 82 15 246 l0
210 26 20 c30 24 63 27 86 9z m284 -36 c-10 -2 -22 0 -28 6 -6 6 0 7 19 4 21
-5 23 -7 9 -10z m56 -5 c-24 -11 -38 -5 -28 11 3 6 16 8 28 4 l22 -5 -22 -10z
m-1873 -52 c32 -16 41 -33 41 -75 0 -42 -9 -59 -42 -76 -89 -46 -173 69 -102
140 30 29 62 33 103 11z m1911 -5 c23 -12 39 -59 33 -94 -7 -32 -47 -66 -80
-66 -86 0 -131 108 -66 158 20 14 87 16 113 2z m-1286 -174 c-36 -36 -40 -51
-23 -76 8 -11 9 -9 3 10 -3 14 -3 22 1 18 5 -5 9 -22 10 -39 l2 -31 -18 23
c-10 13 -19 32 -19 42 0 24 26 74 42 80 33 13 33 4 2 -27z m128 -78 c-6 -6 -7
0 -4 19 5 21 7 23 10 9 2 -10 0 -22 -6 -28z m1526 11 c-42 -69 -57 -104 -45
-108 6 -2 16 -10 20 -17 12 -20 47 -17 48 4 0 11 4 7 11 -11 5 -15 13 -25 16
-23 4 2 5 -33 3 -79 -3 -72 0 -91 21 -137 33 -71 71 -114 138 -156 79 -50 100
-71 100 -104 0 -63 -66 -86 -141 -48 -66 34 -185 155 -218 221 -73 146 -63
331 24 445 29 38 43 46 23 13z m-1545 -33 c7 3 3 -2 -7 -10 -11 -9 -25 -16
-30 -15 -6 0 -5 3 2 6 6 2 13 14 13 26 1 17 2 18 6 4 2 -9 10 -15 16 -11z
m-508 -106 c74 -36 151 -119 170 -182 13 -45 15 -225 15 -1490 l0 -1438 953
-2 c945 -3 952 -3 997 -24 48 -23 114 -83 135 -124 25 -48 35 -145 35 -339 0
-292 -15 -361 -95 -450 -52 -58 -121 -90 -212 -100 -119 -13 -2747 -14 -2811
-2 -77 15 -120 39 -178 96 -35 34 -58 69 -72 108 l-22 58 0 1815 c0 1776 0
1816 20 1870 24 70 72 133 131 174 85 58 97 59 509 57 l375 -2 50 -25z m874
15 c40 -20 65 -77 58 -133 -6 -54 -32 -91 -80 -115 -26 -13 -37 -25 -37 -40 0
-32 10 -42 62 -65 81 -35 111 -121 70 -202 -50 -101 -193 -107 -258 -11 -56
83 -10 205 86 226 27 6 30 11 30 43 0 30 -5 40 -29 54 -45 25 -64 62 -65 123
-1 103 81 163 163 120z m1251 -5 c0 -5 -2 -10 -4 -10 -3 0 -8 5 -11 10 -3 6
-1 10 4 10 6 0 11 -4 11 -10z m-422 -36 c29 -33 28 -76 -2 -110 -45 -53 -139
-28 -152 41 -16 88 93 138 154 69z m745 -5 c59 -31 73 -89 31 -138 -32 -38
-87 -43 -128 -10 -35 28 -37 95 -3 126 36 34 65 40 100 22z m-3852 -557 c2
-327 2 -333 -19 -354 -27 -28 -77 -28 -104 0 -21 21 -22 27 -19 304 2 279 2
283 24 298 12 8 31 25 43 38 12 12 26 22 33 22 6 0 11 5 11 11 0 5 5 7 10 4 6
-3 10 -1 10 6 0 7 2 10 4 8 3 -2 6 -154 7 -337z m2704 171 c-11 -2 -27 -7 -35
-10 -8 -3 -18 -6 -22 -5 -4 1 -16 -10 -27 -25 -13 -16 -21 -20 -21 -11 0 30
45 57 95 56 19 0 23 -2 10 -5z m382 1 c-3 -3 -12 -4 -19 -1 -8 3 -5 6 6 6 11
1 17 -2 13 -5z m-59 -131 c-65 -2 -171 -2 -235 0 -65 1 -12 3 117 3 129 0 182
-2 118 -3z m-3379 -678 c0 -295 -2 -396 -12 -415 -24 -47 -104 -53 -128 -9 -8
15 -11 148 -10 447 l2 426 32 43 c18 23 39 45 47 48 8 3 24 16 35 29 l20 23 6
-101 c4 -56 7 -276 8 -491z m4951 458 c34 -24 48 -42 59 -82 13 -45 -11 -106
-50 -126 -36 -19 -102 -19 -139 0 -75 39 -79 160 -8 209 30 21 107 20 138 -1z
m-390 -35 c25 -27 26 -69 2 -98 l-18 -22 -538 -2 c-515 -2 -539 -2 -562 16
-31 25 -32 73 -2 105 l21 23 538 0 538 0 21 -22z m-4224 -389 c18 -20 19 -39
18 -308 0 -243 -3 -291 -16 -316 -25 -47 -210 -223 -243 -231 -58 -14 -110 45
-89 101 5 14 42 54 83 88 124 104 116 77 118 384 2 233 5 268 19 285 24 26 85
24 110 -3z m4754 -49 c31 -17 42 -45 29 -77 -5 -15 -16 -31 -22 -35 -7 -4
-366 -8 -799 -8 l-787 0 -20 26 c-12 15 -21 32 -21 39 0 7 9 24 21 39 l20 26
780 0 c513 0 787 -4 799 -10z m-2064 -140 c0 -12 -4 -16 -9 -11 -5 5 -6 14 -3
20 10 15 12 14 12 -9z m-3440 -298 c13 -74 53 -122 157 -193 50 -35 57 -44 57
-73 0 -33 -18 -57 -53 -69 -42 -15 -162 66 -229 154 -51 68 -53 81 -23 128 14
22 25 44 25 49 0 14 41 53 50 47 5 -3 12 -22 16 -43z m3289 -252 c65 -15 86
-71 43 -117 -21 -23 -23 -23 -265 -23 l-243 0 -2 45 c-4 102 -30 89 202 95
113 3 210 7 215 8 6 1 28 -3 50 -8z m289 -16 c31 -32 34 -71 6 -107 -39 -49
-116 -42 -145 14 -21 40 -19 57 14 90 39 38 88 40 125 3z m-205 -304 c18 -5
45 -17 60 -27 24 -16 55 -18 411 -14 261 2 398 0 426 -8 62 -17 77 -65 36
-113 -14 -17 -47 -18 -426 -18 l-411 0 -20 -30 c-30 -45 -73 -64 -134 -58
-121 12 -171 147 -86 232 43 43 84 54 144 36z m-405 -142 c3 -29 6 -77 6 -106
0 -72 19 -105 102 -180 l69 -64 122 3 c67 2 132 0 143 -4 12 -4 27 -21 34 -38
11 -27 10 -34 -7 -57 l-20 -27 -159 -3 c-87 -1 -169 0 -181 3 -33 8 -230 228
-238 266 -9 38 4 207 14 190 8 -12 51 21 51 39 0 6 9 10 20 10 11 0 20 5 20
10 0 6 4 10 9 10 4 0 11 -24 15 -52z m2406 17 c35 -18 47 -54 30 -94 -6 -16
-106 -122 -221 -236 -115 -114 -209 -208 -209 -209 0 -2 146 -1 324 2 l325 5
30 -31 c39 -38 39 -56 2 -93 l-29 -29 -406 0 -405 0 -24 23 c-31 27 -39 64
-24 99 7 15 112 128 234 252 122 125 232 244 244 265 33 59 75 74 129 46z
m-5343 -47 c23 -21 29 -59 17 -93 -8 -20 -56 -45 -87 -45 -37 0 -77 43 -77 83
0 79 87 111 147 55z m341 -3 c26 -30 28 -55 7 -94 -39 -75 -159 -42 -159 44 0
80 97 112 152 50z m401 -342 c-39 -80 -128 -127 -234 -122 -49 2 -55 0 -80
-30 -93 -109 -253 -66 -280 75 -8 43 23 116 59 139 63 41 145 35 207 -15 38
-30 45 -32 105 -28 84 5 98 19 104 105 l5 66 57 1 c31 1 60 5 65 9 4 5 9 -28
11 -73 2 -68 -1 -90 -19 -127z m3401 88 c86 -62 56 -194 -47 -208 -85 -11
-143 36 -143 118 0 53 33 104 73 112 36 8 90 -3 117 -22z m-416 -32 c35 -16
56 -64 45 -103 -5 -17 -9 -32 -9 -33 0 -1 -13 -9 -30 -18 -76 -39 -150 -2
-150 75 0 74 70 112 144 79z m-3721 -60 c27 -33 23 -93 -9 -118 -57 -45 -144
-12 -144 55 0 44 15 72 43 84 33 14 90 3 110 -21z m615 -382 c58 -58 57 -160
-3 -226 -43 -47 -99 -66 -154 -51 -49 13 -63 30 -59 72 3 33 4 33 58 36 64 4
80 14 80 52 0 33 -15 47 -54 52 -63 7 -60 83 4 104 46 15 86 3 128 -39z m-451
35 c16 -10 30 -53 25 -74 -2 -11 -19 -22 -43 -28 -28 -8 -40 -17 -45 -35 -13
-51 23 -78 83 -64 72 16 90 -71 22 -106 -99 -52 -229 39 -229 160 0 50 32 115
67 137 29 18 99 24 120 10z m5236 -135 c86 -36 106 -152 39 -220 -59 -59 -168
-45 -213 26 -26 41 -22 126 7 158 40 46 108 60 167 36z m-409 -18 c37 -29 56
-71 56 -122 0 -37 -6 -50 -32 -76 -45 -44 -90 -50 -146 -20 -47 25 -72 65 -72
116 0 40 31 95 60 110 39 20 103 16 134 -8z m-4244 -704 l0 -95 95 0 95 0 0
-65 0 -65 -95 0 -95 0 0 -95 0 -95 -75 0 -75 0 0 95 0 95 -90 0 -90 0 0 65 0
65 90 0 90 0 0 95 0 95 75 0 75 0 0 -95z m1090 -797 c0 -5 5 -6 11 -2 15 9 2
-80 -17 -117 -19 -39 -151 -165 -186 -180 -38 -16 -77 -3 -97 33 -21 37 -5 67
64 118 63 46 95 91 95 133 0 28 0 28 65 26 36 -1 65 -6 65 -11z m790 -244 c0
-148 -1 -159 -22 -181 -24 -26 -65 -30 -92 -10 -26 19 -31 61 -28 210 l3 132
70 3 69 3 0 -157z"/>
<path d="M3988 5669 c-44 -25 -43 -75 3 -99 50 -27 97 62 52 96 -22 16 -32 17
-55 3z"/>
<path d="M4328 3749 c-25 -14 -23 -62 3 -85 19 -17 23 -17 47 -3 32 17 40 59
17 83 -19 18 -42 20 -67 5z"/>
<path d="M1326 3304 c-34 -34 -9 -94 39 -94 24 0 55 33 55 57 0 18 -41 53 -61
53 -10 0 -25 -7 -33 -16z"/>
<path d="M6382 2754 c-31 -22 -30 -67 4 -84 31 -17 55 -5 69 35 8 23 6 30 -14
46 -28 23 -31 23 -59 3z"/>
</g>
</svg>
